<svg width="113" height="112" viewBox="0 0 113 112" fill="none" xmlns="http://www.w3.org/2000/svg">
<g clip-path="url(#clip0_6_43)">
<path d="M6.50528 55.7895C8.78402 57.4013 11.8409 58.1794 14.8421 58.1794C17.899 58.1794 20.9002 57.4013 23.179 55.7895C26.6249 53.2329 28.7369 49.2868 28.7369 44.6737C28.7369 49.2868 30.7933 53.2329 34.2948 55.7895C36.5735 57.4013 39.6303 58.1794 42.6316 58.1794C45.6884 58.1794 48.6897 57.4013 50.9684 55.7895C54.4143 53.2329 56.5263 49.2868 56.5263 44.6737C56.5263 49.2868 58.5828 53.2329 62.0842 55.7895C64.363 57.4013 67.4198 58.1794 70.4767 58.1794C73.4779 58.1794 76.4792 57.4013 78.7579 55.7895C82.2038 53.2329 84.3158 49.2868 84.3158 44.6737C84.3158 49.2868 86.3722 53.2329 89.8737 55.7895C92.1524 57.4013 95.2093 58.1794 98.2105 58.1794C101.267 58.1794 104.269 57.4013 106.547 55.7895C110.049 53.2329 112.105 49.2868 112.105 44.6737V39.1158L95.4316 0.210571H23.179L0.947388 39.1158V44.6737C0.947388 49.2868 3.00381 53.2329 6.50528 55.7895ZM17.6211 105.755H45.4105V77.9655H67.6421V105.755H95.4316V66.8497C93.3752 66.5718 91.4299 65.627 89.8737 64.4598C86.3722 61.9588 84.3158 60.4026 84.3158 55.7895C84.3158 60.4026 82.2038 61.9588 78.7579 64.4598C76.4792 66.1272 73.4779 66.8497 70.4767 66.9053C67.4198 66.9053 64.363 66.1272 62.0842 64.4598C58.5828 61.9588 56.5263 60.4026 56.5263 55.7895C56.5263 60.4026 54.4143 61.9588 50.9684 64.4598C48.6897 66.1272 45.6884 66.8497 42.6316 66.9053C39.6303 66.9053 36.5735 66.1272 34.2948 64.4598C30.7933 61.9588 28.7369 60.4026 28.7369 55.7339C28.7369 60.4026 26.6249 61.9588 23.179 64.4598C21.5672 65.627 19.6775 66.5718 17.6211 66.9053V105.755Z" fill="#747474"/>
</g>
<defs>
<clipPath id="clip0_6_43">
<rect width="111.158" height="111.158" fill="white" transform="translate(0.947388 0.210571)"/>
</clipPath>
</defs>
</svg>
