<svg xmlns="http://www.w3.org/2000/svg" width="78" height="78" fill="none" viewBox="0 0 78 78"><path fill="#fff" fill-rule="evenodd" d="M29.25 6.5C29.25 5.63805 29.5924 4.8114 30.2019 4.2019C30.8114 3.59241 31.6381 3.25 32.5 3.25H45.5C46.362 3.25 47.1886 3.59241 47.7981 4.2019C48.4076 4.8114 48.75 5.63805 48.75 6.5C48.75 7.36195 48.4076 8.1886 47.7981 8.7981C47.1886 9.40759 46.362 9.75 45.5 9.75H42.25V13.2015C46.995 13.793 51.35 15.6682 54.9445 18.46L58.7795 14.625L56.2023 12.0478C55.6103 11.4348 55.2827 10.6138 55.2901 9.7617C55.2975 8.90956 55.6393 8.09442 56.2419 7.49184C56.8444 6.88926 57.6596 6.54746 58.5117 6.54006C59.3639 6.53265 60.1848 6.86024 60.7978 7.45225L70.5478 17.2023C71.1398 17.8152 71.4674 18.6362 71.46 19.4883C71.4526 20.3404 71.1108 21.1556 70.5082 21.7582C69.9056 22.3607 69.0905 22.7025 68.2383 22.7099C67.3862 22.7173 66.5652 22.3898 65.9523 21.7977L63.375 19.2205L59.0038 23.595C54.114 22.3877 48.9953 22.4634 44.1434 23.8149C39.2915 25.1664 34.8708 27.7479 31.3093 31.3093C27.7479 34.8707 25.1665 39.2915 23.815 44.1434C22.4634 48.9953 22.3877 54.114 23.595 59.0038L19.2205 63.375L21.7978 65.9522C22.1082 66.252 22.3558 66.6107 22.5261 67.0072C22.6964 67.4037 22.7861 67.8302 22.7898 68.2617C22.7936 68.6932 22.7114 69.1212 22.548 69.5206C22.3845 69.92 22.1432 70.2829 21.8381 70.588C21.5329 70.8932 21.17 71.1345 20.7706 71.2979C20.3712 71.4613 19.9433 71.5436 19.5117 71.5398C19.0802 71.5361 18.6537 71.4464 18.2572 71.2761C17.8607 71.1058 17.5021 70.8582 17.2023 70.5478L7.45228 60.7978C7.14187 60.498 6.89428 60.1393 6.72395 59.7428C6.55362 59.3463 6.46397 58.9198 6.46022 58.4883C6.45647 58.0568 6.5387 57.6288 6.70211 57.2294C6.86552 56.83 7.10685 56.4671 7.412 56.162C7.71715 55.8568 8.08002 55.6155 8.47943 55.4521C8.87884 55.2887 9.3068 55.2064 9.73833 55.2102C10.1699 55.2139 10.5963 55.3036 10.9928 55.4739C11.3894 55.6443 11.748 55.8918 12.0478 56.2022L14.625 58.7795L18.46 54.9445C15.5958 51.2639 13.779 46.8779 13.2015 42.25H9.75003V45.5C9.75003 46.362 9.40762 47.1886 8.79813 47.7981C8.18863 48.4076 7.36198 48.75 6.50003 48.75C5.63808 48.75 4.81143 48.4076 4.20193 47.7981C3.59244 47.1886 3.25003 46.362 3.25003 45.5V32.5C3.25003 31.638 3.59244 30.8114 4.20193 30.2019C4.81143 29.5924 5.63808 29.25 6.50003 29.25C7.36198 29.25 8.18863 29.5924 8.79813 30.2019C9.40762 30.8114 9.75003 31.638 9.75003 32.5V35.75H13.2015C13.778 31.1219 15.5949 26.7356 18.46 23.0555L14.625 19.2205L12.0478 21.7977C11.4348 22.3898 10.6139 22.7173 9.76173 22.7099C8.90959 22.7025 8.09445 22.3607 7.49187 21.7582C6.88929 21.1556 6.54749 20.3404 6.54009 19.4883C6.53269 18.6362 6.86027 17.8152 7.45228 17.2023L17.2023 7.45225C17.8152 6.86024 18.6362 6.53265 19.4883 6.54006C20.3405 6.54746 21.1556 6.88926 21.7582 7.49184C22.3608 8.09442 22.7026 8.90956 22.71 9.7617C22.7174 10.6138 22.3898 11.4348 21.7978 12.0478L19.2205 14.625L23.0555 18.46C26.7357 15.5949 31.1219 13.778 35.75 13.2015V9.75H32.5C31.6381 9.75 30.8114 9.40759 30.2019 8.7981C29.5924 8.1886 29.25 7.36195 29.25 6.5Z" clip-rule="evenodd"/><path fill="#fff" fill-rule="evenodd" d="M52 29.25C45.9664 29.25 40.1798 31.6469 35.9134 35.9133C31.6469 40.1798 29.25 45.9663 29.25 52C29.25 58.0337 31.6469 63.8202 35.9134 68.0867C40.1798 72.3531 45.9664 74.75 52 74.75C58.0337 74.75 63.8203 72.3531 68.0867 68.0867C72.3532 63.8202 74.75 58.0337 74.75 52C74.75 45.9663 72.3532 40.1798 68.0867 35.9133C63.8203 31.6469 58.0337 29.25 52 29.25ZM48.75 61.75C48.75 60.888 49.0924 60.0614 49.7019 59.4519C50.3114 58.8424 51.1381 58.5 52 58.5H52.0033C52.8652 58.5 53.6919 58.8424 54.3014 59.4519C54.9109 60.0614 55.2533 60.888 55.2533 61.75C55.2533 62.612 54.9109 63.4386 54.3014 64.0481C53.6919 64.6576 52.8652 65 52.0033 65H52C51.1381 65 50.3114 64.6576 49.7019 64.0481C49.0924 63.4386 48.75 62.612 48.75 61.75ZM55.25 42.25C55.25 41.388 54.9076 40.5614 54.2981 39.9519C53.6886 39.3424 52.862 39 52 39C51.1381 39 50.3114 39.3424 49.7019 39.9519C49.0924 40.5614 48.75 41.388 48.75 42.25L48.7533 52C48.7533 52.4268 48.8373 52.8494 49.0007 53.2437C49.164 53.638 49.4034 53.9963 49.7052 54.2981C50.007 54.5999 50.3653 54.8393 50.7596 55.0026C51.1539 55.1659 51.5765 55.25 52.0033 55.25C52.4301 55.25 52.8527 55.1659 53.247 55.0026C53.6413 54.8393 53.9996 54.5999 54.3014 54.2981C54.6032 53.9963 54.8426 53.638 55.0059 53.2437C55.1692 52.8494 55.2533 52.4268 55.2533 52L55.25 42.25Z" clip-rule="evenodd"/></svg>