<svg width="137" height="137" viewBox="0 0 137 137" fill="none" xmlns="http://www.w3.org/2000/svg">
<path fill-rule="evenodd" clip-rule="evenodd" d="M68.4737 28.6034L119.632 79.7613V115.632C119.632 119.024 118.284 122.277 115.886 124.675C113.487 127.074 110.234 128.421 106.842 128.421H30.1053C26.7133 128.421 23.4602 127.074 21.0617 124.675C18.6632 122.277 17.3158 119.024 17.3158 115.632V79.7613L68.4737 28.6034ZM111.105 21.8421V51.6842L94.0526 34.6315V21.8421C94.0526 20.7114 94.5018 19.6271 95.3013 18.8276C96.1008 18.0281 97.1851 17.5789 98.3158 17.5789H106.842C107.973 17.5789 109.057 18.0281 109.857 18.8276C110.656 19.6271 111.105 20.7114 111.105 21.8421Z" fill="#747474"/>
<path fill-rule="evenodd" clip-rule="evenodd" d="M62.4456 13.3158C64.0445 11.7173 66.2128 10.8194 68.4737 10.8194C70.7346 10.8194 72.9029 11.7173 74.5018 13.3158L131.176 69.9817C131.977 70.7822 132.426 71.8679 132.426 73C132.426 74.1321 131.977 75.2178 131.176 76.0183C130.376 76.8188 129.29 77.2685 128.158 77.2685C127.026 77.2685 125.94 76.8188 125.14 76.0183L68.4737 19.3439L11.8078 76.0183C11.0073 76.8188 9.92155 77.2685 8.78946 77.2685C7.65737 77.2685 6.57165 76.8188 5.77115 76.0183C4.97064 75.2178 4.52092 74.1321 4.52092 73C4.52092 71.8679 4.97064 70.7822 5.77115 69.9817L62.4456 13.3158Z" fill="#747474"/>
</svg>
