<svg width="149" height="148" viewBox="0 0 149 148" fill="none" xmlns="http://www.w3.org/2000/svg">
<path d="M118.345 49.2632C117.27 47.4018 115.727 45.854 113.869 44.7738C112.011 43.6935 109.902 43.1182 107.753 43.1053H92.7895V30.7895C92.7895 29.1563 92.1407 27.59 90.9859 26.4352C89.831 25.2804 88.2648 24.6316 86.6316 24.6316H25.0526C21.7863 24.6316 18.6537 25.9291 16.3441 28.2388C14.0344 30.5485 12.7368 33.681 12.7368 36.9474V98.5263C12.7391 100.686 13.3092 102.807 14.39 104.677C15.4708 106.547 17.0244 108.1 18.8947 109.179C18.6743 114.896 20.7335 120.465 24.6195 124.663C28.5055 128.861 33.8999 131.343 39.6161 131.563C45.3322 131.784 50.9018 129.725 55.0996 125.839C59.2974 121.953 61.7795 116.558 62 110.842H81.0895C81.7704 115.994 84.3006 120.724 88.2088 124.149C92.1171 127.575 97.1371 129.464 102.334 129.464C107.531 129.464 112.551 127.575 116.46 124.149C120.368 120.724 122.898 115.994 123.579 110.842C126.845 110.842 129.978 109.545 132.288 107.235C134.597 104.925 135.895 101.793 135.895 98.5263V80.0526C135.885 78.9292 135.588 77.827 135.033 76.8505L118.345 49.2632ZM92.7895 55.4211H107.753L118.837 73.8947H92.7895V55.4211ZM40.4474 117C38.6205 117 36.8347 116.458 35.3157 115.443C33.7967 114.428 32.6128 112.986 31.9136 111.298C31.2145 109.61 31.0316 107.753 31.388 105.961C31.7444 104.169 32.6241 102.524 33.9159 101.232C35.2077 99.9399 36.8536 99.0602 38.6454 98.7038C40.4371 98.3474 42.2943 98.5303 43.9822 99.2294C45.67 99.9286 47.1126 101.112 48.1275 102.631C49.1425 104.15 49.6842 105.936 49.6842 107.763C49.6842 110.213 48.7111 112.562 46.9788 114.295C45.2466 116.027 42.8971 117 40.4474 117ZM102.026 117C100.199 117 98.4136 116.458 96.8946 115.443C95.3756 114.428 94.1917 112.986 93.4926 111.298C92.7935 109.61 92.6106 107.753 92.967 105.961C93.3234 104.169 94.2031 102.524 95.4949 101.232C96.7867 99.9399 98.4325 99.0602 100.224 98.7038C102.016 98.3474 103.873 98.5303 105.561 99.2294C107.249 99.9286 108.692 101.112 109.706 102.631C110.721 104.15 111.263 105.936 111.263 107.763C111.263 110.213 110.29 112.562 108.558 114.295C106.826 116.027 104.476 117 102.026 117Z" fill="#747474"/>
</svg>
